<mxfile host="app.diagrams.net" modified="2024-01-03T05:16:47.243Z" agent="Mozilla/5.0 (Windows NT 10.0; Win64; x64) AppleWebKit/537.36 (KHTML, like Gecko) Chrome/120.0.0.0 Safari/537.36" version="22.1.16" etag="7XSebJBAYGmD8LbTYg6K" type="github">
  <diagram name="第 1 页" id="6PT36sTC3NRW0yiq79YD">
    <mxGraphModel>
      <root>
        <mxCell id="0" />
        <mxCell id="1" parent="0" />
      </root>
    </mxGraphModel>
  </diagram>
</mxfile>
